<?xml version="1.0" encoding="UTF-8"?>
<svg id="Layer_1" data-name="Layer 1" xmlns="http://www.w3.org/2000/svg" viewBox="0 0 1121.51 591.4">
  <defs>
    <style>
      .cls-1 {
        fill: #231f20;
      }

      .cls-1, .cls-2 {
        stroke-width: 0px;
      }

      .cls-2 {
        fill: #009444;
      }
    </style>
  </defs>
  <path class="cls-1" d="M727.38,197.27L924.65,0h-51.7l-315.96,315.96V0h-36.56v241.28h24.73v36.56h-24.73v277H36.56v-277h483.87v-36.56h-34.41V0H0v591.4h556.99v-223.73l144.54-144.54,331.71,331.71,36.56,36.56h51.71l-394.13-394.13ZM36.56,36.56h412.9v204.72H36.56V36.56Z"/>
  <rect class="cls-1" x="520.43" y="241.28" width="24.73" height="36.56"/>
  <g>
    <path class="cls-2" d="M690.07,481.36c3.11,3.66,6.17,7.34,9.13,11.07,1.2,1.51,1.82,3.22-.08,4.7-1.7,1.33-3.75,1.32-6.05.67-4.87-1.37-9.74-2.73-14.45-4.39-16.46-5.81-30.6-13.72-41.31-24.75-12.32-12.68-17.67-27.1-18.84-42.46-.86-11.36.67-22.61,3.71-33.78,4.04-14.83,10.4-29.08,18.73-42.87.38-.63.51-1.45,1.9-1.66.21,1.79.4,3.53.6,5.27,1.3,11.29,6.86,21.34,16.48,30.13,8.99,8.22,20.43,14.02,33.59,18.04,9.8,2.99,17.8,7.75,24.16,13.91,9.05,8.78,14.45,18.84,18.05,29.47,1.01,2.98,1.61,6.04,3.05,8.84,1.08.24,1.62-.17,2.17-.51,4.66-2.87,9.82-5.18,15.12-7.32,13.1-5.3,26.8-7.57,41.73-4.96,8.96,1.57,18.15,1.62,27.23.33,15.54-2.21,28.12-8.07,38.04-17.13.69-.63,1.08-1.6,2.47-1.68.46.41.22.79.12,1.19-2.95,11.72-7.65,23.05-14,34.01-7.7,13.28-17.57,25.51-32.03,35.46-15.78,10.86-34.37,16.64-56.06,16.8-10.78.08-21.31-1.03-31.6-3.4-1.68-.39-2.96-1.03-3.13-2.48-.17-1.53.59-2.65,2.5-3.27,4.44-1.44,8.84-2.94,13.35-4.23,7.67-2.19,15.04-4.86,22.37-7.57,8.67-3.21,16.77-7.15,24.37-11.62,2.68-1.57,5.17-3.27,7.26-5.3-1.1.36-2.04.86-2.95,1.38-14.26,8.19-29.16,15.6-46.42,19.99-9.28,2.36-18.73,3.76-28.54,1.91-8.76-1.65-15.45-5.86-21.71-10.26-12.92-9.09-20.54-20.71-27.36-32.65-3.97-6.95-6.54-14.28-10.58-21.21.69,5.96,2.92,11.64,5.87,17.34,5.85,11.82,14.18,22.52,23.1,32.99Z"/>
    <path class="cls-2" d="M680.89,580.21c8.43-4.46,18.09-6.65,28.04-8.33,2.87-.48,5.94-.45,8.61-1.5-.12-.98-.72-1.59-1.27-2.2-1.98-2.2-3.65-4.52-5.1-6.93-6.42-10.72-8.63-22.1-9.56-33.66-.67-8.44.18-16.86.88-25.28.09-1.03.1-2.12,2.19-1.98,4.19.26,8.38.53,12.57.74,1.7.09,2.3.52,2.21,1.9-.33,5.19-.95,10.37-.94,15.57.02,10.57,1.13,21.04,5.12,31.23,2.58,6.58,6.57,12.62,13.66,17.25,1.72,1.12,3.3,2.45,6.02,2.54,9.4.3,18.77.88,27.98,2.41,9.13,1.53,18.05,3.55,25.96,7.39,4.25,2.06,8.07,4.49,9.75,8.23,1.31,2.91.94,3.25-3.19,3.25-42.36,0-84.73,0-127.09,0-5.1,0-5.39-.31-3.69-3.85.09-.19.22-.37.43-.69,1.85-2.58,4.4-4.48,7.42-6.07Z"/>
  </g>
</svg>